<?xml version="1.0" standalone="no"?>
<!DOCTYPE svg PUBLIC "-//W3C//DTD SVG 20010904//EN"
 "http://www.w3.org/TR/2001/REC-SVG-20010904/DTD/svg10.dtd">
<svg version="1.0" xmlns="http://www.w3.org/2000/svg"
 width="24.000000pt" height="24.000000pt" viewBox="0 0 24.000000 24.000000"
 preserveAspectRatio="xMidYMid meet">
<metadata>
Created by potrace 1.16, written by Peter Selinger 2001-2019
</metadata>
<g transform="translate(0.000000,24.000000) scale(0.004687,-0.004687)"
fill="#000000" stroke="none">
<path d="M1909 4497 c-103 -29 -181 -96 -228 -197 -23 -48 -26 -70 -29 -186
l-4 -131 -51 14 c-69 18 -218 17 -291 -2 -113 -30 -183 -79 -685 -488 -533
-433 -548 -448 -593 -577 -19 -53 -23 -84 -22 -170 1 -119 20 -184 76 -270 19
-29 186 -194 405 -400 205 -193 373 -358 373 -366 0 -8 -54 -184 -120 -391
l-120 -375 0 -99 c0 -140 24 -193 105 -230 36 -17 70 -19 315 -19 242 0 279 2
309 18 45 22 71 59 78 108 4 34 -4 56 -66 176 -39 75 -71 143 -71 151 0 8 45
164 101 346 113 376 122 415 108 503 -17 104 -48 153 -230 359 -93 106 -168
197 -166 203 2 5 33 37 70 70 l68 60 37 -36 c20 -20 163 -118 317 -219 197
-129 309 -209 378 -271 91 -82 101 -89 135 -86 35 3 42 10 106 103 103 151
119 190 114 283 -4 89 -25 139 -78 192 -60 59 -546 370 -578 370 -58 0 -93
-74 -54 -118 9 -11 123 -89 252 -173 283 -184 274 -178 294 -211 33 -55 19
-121 -46 -216 l-30 -43 -61 54 c-34 29 -188 136 -342 236 -154 101 -290 192
-301 203 -44 40 -77 118 -82 194 -6 90 7 118 147 338 56 88 101 170 101 183 0
32 -42 73 -75 73 -35 0 -58 -26 -140 -157 -39 -62 -73 -113 -76 -113 -15 0
-31 95 -27 153 7 83 25 115 170 297 68 86 133 168 146 184 l22 29 64 -32 c117
-58 174 -129 231 -293 47 -134 45 -162 -24 -266 -28 -43 -51 -87 -51 -99 0
-11 10 -32 21 -47 17 -22 28 -26 57 -24 30 2 43 11 74 53 107 142 128 234 84
370 -14 44 -26 83 -26 86 0 3 36 9 80 12 179 12 323 129 366 297 12 49 15 96
12 199 -3 121 -7 142 -30 192 -36 79 -89 133 -166 171 -61 30 -73 32 -186 35
-77 2 -138 -2 -167 -10z m265 -149 c55 -17 109 -73 125 -130 19 -67 11 -272
-12 -315 l-17 -32 -55 25 c-73 32 -108 31 -134 -2 -28 -36 -26 -70 5 -99 23
-22 24 -25 10 -31 -29 -11 -121 3 -162 24 -46 24 -84 63 -110 112 -23 44 -32
252 -14 318 13 52 71 113 120 129 48 15 194 16 244 1z m-794 -491 c0 -2 -50
-66 -111 -143 -131 -165 -153 -200 -173 -279 -31 -117 -16 -230 44 -344 30
-57 32 -63 21 -105 -13 -53 -14 -156 -2 -208 9 -37 9 -37 -75 -113 -46 -42
-88 -75 -92 -73 -5 2 -64 65 -131 141 -72 80 -133 140 -147 143 -46 12 -96
-41 -86 -90 2 -12 109 -140 238 -286 l234 -264 -22 -22 c-13 -11 -80 -64 -150
-117 l-127 -96 -282 265 c-156 146 -291 277 -301 290 -45 56 -62 116 -63 209
0 77 4 98 27 145 14 30 39 69 54 86 29 31 944 774 995 807 37 25 149 65 149
54z m-77 -1853 c10 -13 25 -40 33 -61 32 -76 23 -124 -95 -512 -61 -200 -111
-373 -111 -384 0 -11 32 -80 71 -153 l71 -134 -249 2 -248 3 -3 83 c-3 82 -1
87 128 492 91 286 128 418 124 435 -3 14 -30 47 -60 73 l-54 48 147 111 147
111 40 -46 c23 -25 49 -56 59 -68z"/>
<path d="M2919 4497 c-100 -28 -177 -93 -226 -187 -28 -54 -28 -58 -28 -230
l0 -175 33 -67 c68 -139 211 -227 370 -228 28 0 52 -1 52 -3 0 -2 -11 -37 -25
-77 -29 -84 -32 -167 -10 -229 8 -23 66 -121 130 -219 63 -97 116 -181 117
-186 2 -5 -103 -79 -232 -165 -260 -173 -288 -200 -310 -308 -18 -84 -1 -149
63 -250 142 -227 146 -228 319 -72 40 37 195 146 343 243 149 97 291 194 318
217 l47 40 70 -62 c39 -34 69 -66 68 -70 -2 -5 -75 -90 -163 -190 -88 -99
-172 -202 -187 -227 -39 -67 -62 -165 -55 -232 4 -31 54 -212 112 -403 58
-190 105 -351 105 -357 0 -6 -30 -66 -66 -133 -79 -145 -89 -193 -52 -247 45
-67 60 -70 368 -70 266 0 277 1 320 23 77 39 98 90 99 249 1 60 -13 112 -124
460 -69 216 -122 395 -117 399 67 58 726 685 751 714 41 48 85 141 100 213 33
155 -18 328 -131 442 -58 59 -94 65 -135 24 -34 -34 -26 -75 27 -129 48 -50
87 -133 96 -205 8 -67 -15 -168 -51 -222 -13 -20 -153 -158 -311 -307 l-287
-270 -148 112 c-81 62 -148 115 -149 119 0 4 106 126 235 272 206 234 235 270
235 300 0 41 -29 69 -72 69 -33 0 -44 -10 -214 -198 l-81 -90 -87 79 c-63 57
-85 83 -81 95 15 35 16 177 3 227 -14 49 -13 52 9 85 57 83 84 217 64 324 -17
91 -60 166 -182 318 -61 77 -109 141 -106 143 8 8 93 -23 137 -51 25 -16 193
-148 373 -294 181 -146 338 -269 349 -274 49 -18 112 49 91 96 -13 29 -657
553 -742 604 -88 53 -171 75 -281 75 -53 0 -118 -6 -147 -14 l-53 -15 0 101
c0 210 -66 330 -217 398 -39 18 -71 22 -168 25 -77 2 -136 -2 -166 -10z m287
-162 c52 -26 88 -70 104 -126 15 -51 12 -219 -4 -273 -30 -99 -111 -164 -215
-173 -86 -8 -97 -1 -60 37 25 24 30 36 25 58 -8 34 -41 62 -72 62 -13 0 -48
-11 -78 -24 -41 -18 -57 -21 -64 -13 -23 29 -32 89 -32 201 0 140 15 186 73
230 48 37 77 44 183 45 77 1 97 -3 140 -24z m530 -722 c138 -175 160 -223 151
-323 -3 -31 -10 -68 -17 -80 -12 -22 -16 -17 -85 91 -40 63 -85 129 -100 147
-41 49 -100 41 -124 -17 -15 -36 -15 -37 121 -248 55 -87 110 -180 121 -208
37 -96 7 -229 -70 -299 -21 -20 -159 -115 -308 -212 -148 -97 -299 -201 -333
-232 -51 -44 -66 -52 -73 -41 -89 135 -99 168 -72 231 19 40 39 56 286 218
249 164 287 195 287 234 0 7 -48 87 -107 177 -183 282 -193 300 -193 341 0 58
55 218 98 284 44 68 96 113 173 149 l54 25 35 -41 c19 -23 90 -111 156 -196z
m329 -1608 c72 -54 132 -100 134 -102 2 -1 -21 -30 -52 -62 -32 -33 -57 -68
-57 -79 0 -11 59 -204 130 -428 130 -409 139 -445 124 -537 l-7 -37 -243 0
c-134 0 -244 2 -244 5 0 3 32 64 70 134 39 71 70 136 70 145 0 9 -50 179 -111
379 -126 408 -134 453 -90 537 32 61 122 161 135 151 6 -4 70 -52 141 -106z"/>
</g>
</svg>
